<?xml version="1.0" standalone="no"?>
<!DOCTYPE svg PUBLIC "-//W3C//DTD SVG 20010904//EN"
 "http://www.w3.org/TR/2001/REC-SVG-20010904/DTD/svg10.dtd">
<svg version="1.0" xmlns="http://www.w3.org/2000/svg"
 width="945.000000pt" height="472.000000pt" viewBox="0 0 945.000000 472.000000"
 preserveAspectRatio="xMidYMid meet">

<g transform="translate(0.000000,472.000000) scale(0.100000,-0.100000)"
fill="#000000" stroke="none">
<path d="M3245 4231 c-3 -6 -21 -11 -38 -11 -18 0 -74 -14 -125 -30 -200 -64
-355 -171 -457 -315 -87 -125 -114 -213 -115 -382 0 -152 28 -263 95 -374 35
-56 121 -146 163 -168 27 -14 20 -31 -12 -31 -12 0 -56 -11 -97 -25 -91 -32
-195 -37 -232 -12 -34 22 -50 58 -97 215 -25 82 -68 145 -125 182 -107 69
-183 66 -350 -11 -40 -19 -75 -25 -175 -30 -149 -9 -197 -18 -270 -51 -110
-51 -194 -136 -234 -238 -10 -25 -22 -53 -27 -62 -12 -23 -12 -223 0 -246 5
-9 17 -37 27 -62 46 -115 113 -189 221 -245 l58 -30 6 -96 c4 -80 10 -104 32
-142 40 -68 181 -174 216 -162 77 24 217 35 463 35 l266 0 62 35 c71 40 73 40
148 19 61 -17 92 -43 92 -78 0 -23 17 -76 49 -148 l20 -48 -53 -61 c-184 -211
-209 -537 -60 -771 57 -88 105 -141 180 -194 331 -236 824 -213 1113 51 51 46
153 179 177 232 16 32 20 34 48 28 124 -28 237 -32 337 -11 66 14 158 54 191
83 15 13 24 14 60 4 194 -54 354 -61 509 -25 24 5 27 2 43 -51 48 -150 171
-262 301 -272 121 -10 283 86 425 251 67 79 85 94 131 110 30 10 94 45 144 78
l89 60 56 -30 c106 -58 172 -74 310 -74 128 0 182 10 290 51 30 12 61 21 68
21 7 0 38 -16 69 -36 51 -32 62 -36 102 -30 25 4 89 10 141 15 103 10 195 26
250 43 163 51 283 155 335 293 25 65 26 223 3 315 -9 36 -19 115 -23 175 -7
124 -15 169 -41 238 l-18 47 24 17 c56 39 146 132 185 193 58 91 70 136 70
260 0 95 -3 110 -29 162 -16 31 -55 86 -87 123 -33 36 -59 69 -59 73 1 4 7 34
15 67 19 77 19 141 0 240 l-16 80 28 54 c54 108 39 241 -40 354 -76 108 -191
167 -328 167 -187 0 -332 -101 -403 -283 -14 -34 -25 -42 -113 -84 -85 -40
-99 -44 -117 -32 -48 30 -128 71 -158 80 -167 52 -361 51 -553 -2 -75 -20 -76
-19 -97 46 -47 148 -102 222 -208 280 -51 27 -62 30 -160 30 -98 0 -111 -3
-195 -37 l-90 -37 -55 16 c-114 31 -136 35 -187 29 -49 -6 -112 -34 -175 -77
-36 -26 -54 -24 -141 16 -63 29 -87 35 -143 35 -98 0 -222 -61 -321 -158 -78
-76 -108 -126 -133 -217 l-16 -60 -114 0 c-130 0 -120 -7 -155 105 -93 294
-290 457 -635 522 -80 15 -327 21 -335 9z m405 -236 c174 -51 289 -133 341
-245 82 -174 57 -363 -61 -474 -40 -38 -163 -106 -191 -106 -23 0 3 -76 77
-224 114 -226 260 -379 429 -447 89 -36 157 -32 270 15 144 60 195 76 246 76
80 0 118 -52 119 -163 0 -32 -8 -46 -47 -89 -57 -61 -126 -107 -208 -138 -88
-33 -281 -39 -382 -12 -192 52 -384 221 -524 462 -24 41 -49 86 -56 100 -30
67 -53 120 -53 126 0 3 -6 20 -14 37 -8 18 -31 83 -52 145 -36 107 -40 113
-64 110 -30 -4 -35 -30 -25 -126 l7 -62 54 -27 c30 -14 54 -32 54 -39 0 -7 -7
-39 -15 -70 -17 -67 -49 -118 -119 -193 -52 -55 -180 -151 -201 -151 -7 0 -33
22 -59 50 -53 57 -55 37 18 192 34 71 36 83 35 170 0 51 -6 183 -13 293 -13
214 -17 230 -80 314 -32 43 -32 52 -3 79 37 35 90 51 189 58 l95 7 23 -33 c23
-32 23 -35 12 -120 -7 -48 -12 -106 -12 -129 l0 -41 71 0 c108 0 156 16 209
70 80 79 84 173 12 269 -94 126 -357 159 -551 68 -55 -25 -141 -109 -165 -159
-17 -35 -16 -37 5 -84 13 -27 38 -73 57 -103 47 -74 82 -156 82 -192 0 -27 -6
-33 -55 -55 -73 -32 -90 -31 -157 11 -63 39 -118 112 -144 190 -25 73 -22 233
4 303 76 198 245 314 512 352 89 12 263 4 330 -15z m2433 -169 c22 -45 32
-121 23 -168 -22 -115 -185 -144 -257 -45 -52 71 -46 141 18 225 l25 33 86 -3
87 -3 18 -39z m-530 -23 c8 -27 20 -70 26 -98 16 -76 41 -414 41 -565 0 -169
19 -248 73 -307 17 -20 31 -23 86 -23 73 0 75 1 114 48 27 33 27 34 27 193 l0
159 -27 11 c-16 6 -43 13 -61 16 -43 7 -49 24 -27 74 31 67 136 157 222 190
20 7 25 5 34 -19 24 -61 37 -132 43 -232 3 -58 11 -154 17 -215 l11 -110 59
-62 c62 -64 76 -106 44 -133 -9 -7 -85 -19 -180 -27 l-165 -16 -53 42 c-30 22
-57 41 -61 41 -4 0 -19 -14 -33 -30 -47 -57 -96 -75 -203 -75 -112 0 -220 21
-220 42 0 8 13 38 28 67 55 100 63 138 52 271 -5 66 -10 165 -10 220 0 55 -6
140 -14 188 -12 82 -15 90 -49 118 -32 27 -57 76 -57 116 0 16 119 109 177
139 72 36 88 33 106 -23z m2279 25 c61 -18 108 -65 115 -114 11 -82 -41 -119
-152 -108 -79 8 -82 0 -21 -64 107 -114 145 -179 146 -250 0 -58 -19 -100 -67
-145 -57 -54 -55 -53 -308 -131 -46 -14 -72 -59 -45 -76 29 -18 104 -23 184
-11 223 31 311 1 375 -129 31 -61 30 -73 -6 -148 -52 -107 -200 -205 -349
-232 -72 -13 -204 -9 -296 8 -91 17 -188 99 -188 159 0 38 37 101 70 118 52
27 77 19 166 -51 46 -36 103 -76 125 -89 l41 -23 72 26 c87 31 123 57 131 93
9 41 -2 67 -35 84 -23 12 -74 15 -250 15 l-220 0 -40 40 c-35 35 -40 46 -40
87 0 44 3 49 62 104 l63 58 -56 54 c-46 43 -60 64 -73 110 -15 51 -15 63 -2
105 22 72 42 116 63 133 30 26 122 61 233 89 116 30 112 24 89 112 -15 56 -4
90 44 135 52 49 102 61 169 41z m-2795 -35 c45 -110 63 -234 74 -537 15 -393
10 -366 80 -440 45 -48 59 -71 59 -94 0 -38 -14 -49 -84 -67 -72 -19 -306 -21
-324 -3 -24 24 -14 84 23 139 34 52 35 56 35 156 0 56 -4 135 -10 175 -5 40
-11 145 -12 233 l-4 160 -46 30 c-86 55 -84 92 10 177 44 39 154 107 175 108
4 0 15 -17 24 -37z m1536 -290 c14 -21 31 -50 38 -65 15 -35 20 -35 40 1 11
18 42 41 89 65 116 57 207 47 266 -29 36 -47 52 -107 63 -240 10 -113 11 -117
55 -185 69 -106 69 -105 -14 -199 -86 -98 -146 -136 -213 -136 -28 0 -51 5
-56 13 -7 12 -2 57 19 165 16 76 12 271 -5 331 -23 78 -36 92 -71 79 -16 -6
-48 -16 -70 -22 -23 -6 -47 -17 -53 -25 -7 -8 -19 -55 -27 -104 -23 -135 -8
-177 110 -317 33 -39 37 -48 25 -59 -31 -30 -115 -47 -255 -53 l-141 -6 -26
35 c-15 19 -27 39 -27 44 0 5 24 34 54 63 68 67 84 115 67 198 -6 31 -11 80
-11 109 0 59 -6 66 -65 74 -33 4 -41 9 -44 30 -5 41 20 128 45 151 23 22 164
117 175 118 4 1 18 -16 32 -36z m-2073 -139 c51 -15 120 -66 152 -112 60 -84
81 -165 76 -299 -3 -89 -6 -106 -37 -166 -39 -76 -91 -129 -160 -161 -38 -17
-65 -21 -151 -21 -121 0 -173 13 -231 58 -180 139 -198 448 -36 615 60 63 115
89 212 101 50 6 129 0 175 -15z m-2352 -327 c-3 -37 -13 -75 -24 -92 -17 -27
-17 -28 1 -41 10 -8 27 -14 36 -14 36 0 47 -27 54 -130 4 -55 11 -103 15 -105
4 -3 27 2 50 10 23 8 59 15 80 15 44 0 105 -23 113 -43 3 -8 9 -56 13 -107 6
-82 10 -98 40 -142 19 -28 34 -52 34 -55 0 -3 -28 -34 -62 -69 -53 -56 -66
-64 -98 -64 -52 0 -77 21 -63 51 5 13 16 56 23 94 11 61 10 78 -5 128 -9 32
-23 61 -32 64 -8 3 -31 -3 -51 -14 l-37 -19 -3 -77 c-3 -73 -1 -79 33 -129 19
-29 35 -58 35 -64 0 -15 -35 -22 -151 -30 l-96 -7 -7 28 c-5 21 0 38 25 76
l31 49 -11 113 c-6 62 -11 140 -11 173 0 56 -2 62 -31 83 -26 20 -30 28 -25
54 3 16 20 52 36 79 17 26 30 51 30 53 0 3 -17 3 -37 0 -21 -2 -59 -7 -84 -10
l-47 -6 5 -197 c5 -205 7 -212 56 -281 l29 -40 -45 -58 c-78 -101 -138 -143
-202 -143 -31 0 -31 1 0 144 29 136 31 170 9 237 -20 61 -37 69 -70 38 -22
-20 -36 -24 -94 -24 -61 0 -72 3 -107 31 -76 61 -101 126 -88 225 12 84 86
164 179 191 26 8 96 11 194 10 l153 -3 37 29 c57 45 73 51 126 52 l49 0 -5
-63z m765 -362 c66 -31 107 -117 87 -180 -15 -45 -59 -64 -162 -72 -93 -6
-113 -18 -88 -48 16 -20 50 -19 135 5 105 29 115 28 115 -17 0 -77 -118 -145
-225 -129 -136 21 -217 197 -154 336 26 57 65 109 93 121 33 14 156 5 199 -16z
m798 -322 c63 -58 115 -163 124 -249 7 -61 7 -61 -26 -86 -67 -50 -75 -51
-111 -20 -51 44 -169 126 -210 145 -45 21 -58 21 -130 0 -57 -17 -59 -19 -75
-69 -25 -79 -16 -94 79 -141 46 -23 112 -51 148 -63 165 -55 300 -118 376
-175 31 -24 83 -111 110 -187 26 -73 44 -223 33 -288 -28 -175 -164 -320 -374
-401 -112 -43 -330 -41 -445 3 -84 33 -142 70 -206 133 -96 96 -124 164 -124
305 0 89 3 107 29 163 32 70 80 124 146 163 61 35 150 57 203 50 79 -11 182
-68 182 -101 0 -11 -19 -56 -39 -94 -10 -20 -39 -34 -143 -66 -98 -31 -129
-84 -106 -184 17 -78 78 -139 164 -165 133 -40 302 -7 381 76 107 111 106 312
-2 423 -51 52 -99 77 -270 140 -266 98 -348 148 -394 241 -58 115 -30 235 80
342 79 77 186 113 321 109 60 -1 93 3 118 14 86 40 101 38 161 -18z m4068
-147 c15 -25 43 -79 61 -121 l33 -76 -22 -22 c-17 -18 -33 -22 -80 -22 -51 0
-66 5 -135 48 -101 62 -145 56 -146 -20 0 -23 31 -42 117 -68 223 -70 303
-142 287 -260 -8 -58 -34 -142 -47 -153 -60 -49 -170 -82 -272 -82 -51 0 -83
-6 -113 -20 -59 -29 -83 -26 -124 18 -48 50 -85 118 -103 186 -18 69 -18 61 1
80 10 11 34 16 71 16 49 0 69 -7 168 -60 62 -33 121 -60 133 -60 30 0 46 27
46 78 l1 47 -105 36 c-216 74 -250 91 -284 145 -24 38 -28 53 -24 98 6 68 43
142 90 179 34 27 45 30 164 39 81 6 134 14 148 23 11 8 40 15 63 15 40 0 45
-3 72 -44z m-787 -60 c111 -50 178 -153 178 -273 0 -62 -2 -67 -35 -98 -53
-51 -111 -66 -272 -72 l-143 -6 0 -26 c0 -34 8 -45 47 -65 48 -24 100 -20 209
18 115 39 155 48 173 37 7 -5 15 -35 18 -68 5 -56 4 -62 -26 -96 -43 -48 -80
-70 -176 -103 -75 -26 -83 -27 -147 -16 -38 7 -76 16 -86 21 -9 5 -30 15 -46
22 -49 23 -130 104 -155 155 -30 59 -42 109 -48 198 -13 188 114 367 282 397
67 13 170 1 227 -25z m-787 -45 c125 -72 195 -207 195 -378 0 -89 -11 -135
-53 -222 -51 -107 -117 -158 -217 -168 -72 -7 -133 11 -177 51 -32 29 -36 39
-36 80 0 65 22 86 99 92 32 3 69 7 81 10 32 6 72 64 89 126 11 46 11 61 -1
107 -14 53 -37 82 -91 111 -35 20 -129 -5 -172 -45 l-36 -33 -4 -126 c-3 -69
-1 -168 3 -219 l7 -93 49 -58 c32 -38 49 -67 49 -84 0 -56 -165 -226 -244
-252 -56 -18 -78 -10 -95 34 -13 35 -13 48 2 121 20 96 21 232 4 480 l-12 170
-48 25 c-38 20 -49 32 -58 63 -9 34 -7 40 21 75 56 70 167 142 219 142 11 0
33 -14 50 -32 l30 -32 63 30 c103 50 110 53 173 53 49 1 70 -5 110 -28z m-974
-36 c111 -24 165 -65 215 -164 36 -73 53 -151 54 -244 0 -69 -4 -87 -35 -155
-73 -158 -170 -212 -379 -212 -76 0 -85 2 -133 35 -97 65 -158 165 -183 298
-21 114 14 234 100 342 78 98 204 133 361 100z m-689 -31 c83 -30 142 -68 157
-102 20 -42 13 -98 -15 -131 -31 -37 -41 -38 -101 -10 -76 35 -209 64 -236 52
-33 -15 -61 -102 -61 -188 0 -79 16 -118 64 -159 41 -34 113 -35 212 -2 159
53 178 48 178 -49 0 -35 -3 -71 -6 -80 -8 -19 -104 -85 -154 -105 -23 -10 -71
-14 -141 -14 -97 1 -111 4 -159 30 -107 58 -175 164 -200 309 -22 126 18 255
108 348 26 27 56 54 67 60 29 16 177 66 197 67 9 0 50 -12 90 -26z"/>
<path d="M7520 3383 c-51 -9 -98 -79 -86 -127 6 -25 93 -86 122 -86 23 0 165
72 171 86 5 15 -43 115 -60 126 -13 8 -105 8 -147 1z"/>
<path d="M4289 3177 c-19 -12 -44 -42 -57 -67 -20 -39 -23 -56 -20 -125 8
-145 46 -189 165 -190 65 0 75 3 98 26 42 41 59 125 44 217 -11 68 -16 81 -49
113 -56 54 -125 64 -181 26z"/>
<path d="M1670 2901 c-79 -12 -106 -42 -112 -126 l-3 -40 65 -6 c36 -3 86 -9
111 -14 l47 -7 -5 88 c-2 49 -6 95 -8 102 -5 13 -23 13 -95 3z"/>
<path d="M6742 1978 c-14 -18 -62 -109 -62 -119 0 -20 165 -3 250 25 46 15 51
45 13 80 -25 24 -35 26 -109 26 -53 0 -85 -4 -92 -12z"/>
<path d="M5048 1875 c-51 -29 -63 -67 -62 -192 1 -87 5 -118 18 -138 62 -94
212 -86 269 15 25 42 29 156 8 210 -42 110 -41 109 -141 116 -47 3 -72 0 -92
-11z"/>
</g>
</svg>
