<?xml version="1.0" standalone="no"?>
<!DOCTYPE svg PUBLIC "-//W3C//DTD SVG 20010904//EN"
 "http://www.w3.org/TR/2001/REC-SVG-20010904/DTD/svg10.dtd">
<svg version="1.0" xmlns="http://www.w3.org/2000/svg"
 width="1200.000000pt" height="630.000000pt" viewBox="0 0 1200.000000 630.000000"
 preserveAspectRatio="xMidYMid meet">

<g transform="translate(0.000000,630.000000) scale(0.100000,-0.100000)"
fill="#000000" stroke="none">
<path d="M6862 4729 c-177 -33 -318 -104 -418 -211 -241 -258 -192 -646 104
-836 122 -77 299 -144 527 -197 239 -55 334 -100 380 -180 63 -107 -2 -240
-140 -285 -57 -19 -189 -17 -252 4 -112 37 -178 112 -216 245 -13 44 -25 83
-28 85 -7 8 -592 -33 -601 -42 -4 -4 2 -52 13 -107 44 -222 182 -420 352 -504
131 -65 284 -97 507 -107 337 -16 604 53 783 201 38 31 70 55 71 53 1 -1 12
-37 25 -78 53 -172 168 -358 311 -500 166 -166 372 -272 598 -310 39 -6 72
-14 72 -17 0 -3 -13 -22 -29 -42 -245 -312 -282 -931 -77 -1299 92 -166 210
-283 368 -367 166 -87 326 -119 598 -120 300 0 471 44 655 168 128 86 257 240
310 367 10 25 22 49 27 55 4 5 8 -120 8 -278 l0 -287 595 0 595 0 0 260 0 260
-270 0 -270 0 -2 787 -3 788 -322 3 -323 2 -2 -282 -3 -283 -42 83 c-93 183
-242 328 -422 409 -62 28 -243 83 -272 83 -32 0 -21 13 54 67 269 195 527 533
625 818 57 169 66 221 66 410 1 158 -2 190 -22 265 -87 319 -319 617 -592 759
-172 90 -297 122 -505 128 -124 4 -172 1 -275 -16 -288 -50 -595 -189 -839
-379 -211 -165 -413 -411 -522 -634 -13 -27 -25 -48 -28 -48 -4 0 -19 19 -35
41 -71 101 -244 206 -437 268 -104 32 -281 78 -424 109 -214 47 -278 113 -225
230 28 62 95 92 207 92 177 0 249 -58 318 -256 2 -7 20 -10 47 -8 43 4 526 34
548 34 30 0 -30 212 -85 305 -95 159 -241 249 -478 294 -147 29 -452 28 -605
0z m3035 -148 c234 -52 424 -172 578 -364 287 -356 330 -752 130 -1174 -166
-351 -457 -643 -820 -823 -268 -133 -493 -186 -745 -177 -293 11 -486 93 -686
292 -203 202 -309 410 -336 662 -50 454 250 988 737 1314 221 148 501 255 755
289 98 13 283 4 387 -19z m21 -2815 c68 -19 127 -54 178 -108 54 -57 80 -105
107 -197 19 -67 22 -99 21 -266 0 -206 -12 -279 -60 -385 -71 -156 -242 -237
-439 -209 -258 36 -378 246 -362 639 6 162 18 222 63 316 50 107 137 182 243
210 62 17 185 17 249 0z"/>
<path d="M9575 4067 c-100 -34 -226 -117 -298 -197 -110 -122 -112 -274 -5
-377 84 -81 205 -82 404 -2 107 42 170 48 207 19 51 -40 29 -121 -46 -165 -70
-40 -115 -34 -198 26 -14 10 -33 -1 -117 -67 -56 -43 -101 -84 -101 -91 -1
-17 78 -79 131 -103 124 -55 249 -23 418 106 129 98 180 184 180 304 0 95 -28
159 -95 218 -98 86 -203 84 -434 -7 -115 -46 -162 -52 -184 -20 -27 38 7 98
70 125 45 19 80 17 119 -7 19 -12 39 -17 46 -13 38 23 188 147 188 155 0 15
-49 57 -94 80 -49 26 -138 33 -191 16z"/>
<path d="M8880 3594 c-36 -25 -86 -60 -113 -77 -29 -20 -46 -38 -44 -47 2 -8
81 -124 175 -258 168 -239 199 -294 188 -330 -12 -37 -46 -62 -83 -62 -29 0
-43 8 -75 41 l-39 41 -100 -93 -100 -92 43 -44 c115 -117 256 -130 410 -37
145 88 212 185 213 309 0 108 -14 135 -283 518 -68 97 -125 177 -126 177 0 0
-30 -21 -66 -46z"/>
<path d="M0 3675 l0 -1045 170 0 170 0 0 419 c0 352 2 420 14 424 16 6 119 -7
151 -19 75 -28 102 -68 336 -501 l173 -323 363 0 c200 0 363 3 363 6 0 6 -184
365 -278 544 -91 174 -205 298 -311 340 -61 25 -77 40 -42 40 39 0 172 59 235
104 103 73 174 174 212 301 13 44 18 92 18 180 -1 102 -5 131 -27 193 -32 91
-73 156 -141 220 -96 91 -213 133 -423 151 -65 6 -313 11 -550 11 l-433 0 0
-1045z m823 591 c106 -52 137 -190 65 -296 -13 -18 -39 -41 -58 -51 -59 -31
-204 -50 -351 -47 l-134 3 -3 200 c-1 110 -1 204 1 210 3 7 78 8 223 5 186 -5
225 -8 257 -24z"/>
<path d="M273 2259 c-87 -10 -190 -33 -238 -53 l-35 -15 0 -530 0 -530 79 -30
c92 -35 264 -86 341 -101 100 -19 248 -70 296 -103 137 -92 121 -264 -31 -342
-54 -27 -67 -30 -159 -30 -88 0 -108 4 -156 26 -107 50 -168 128 -199 258 -9
36 -19 65 -23 64 -5 -2 -39 -3 -78 -3 l-70 0 0 -344 0 -344 48 -16 c150 -49
474 -69 679 -42 303 40 484 147 630 372 11 17 13 17 22 3 29 -46 113 -137 170
-185 160 -133 344 -189 656 -201 333 -12 561 55 736 216 112 103 192 232 248
399 33 97 31 105 -36 124 -32 8 -157 45 -277 82 -237 73 -229 72 -241 7 -10
-51 -69 -175 -105 -221 -69 -87 -175 -126 -326 -118 -128 6 -209 47 -276 137
-87 119 -123 463 -73 702 39 186 148 303 313 336 189 39 370 -51 433 -215 28
-74 14 -71 189 -32 52 12 147 32 210 46 215 46 202 37 170 123 -79 207 -217
371 -390 461 -160 83 -346 116 -599 107 -215 -7 -338 -35 -496 -113 -134 -66
-231 -151 -331 -288 l-20 -28 -38 77 c-96 194 -288 309 -576 345 -97 12 -342
11 -447 -1z m291 -393 c97 -29 145 -81 185 -198 l18 -53 59 3 c32 1 137 7 233
12 96 6 176 8 179 6 2 -3 -6 -46 -17 -96 -12 -50 -25 -120 -28 -156 -3 -35 -7
-64 -9 -64 -1 0 -42 20 -91 44 -127 65 -286 114 -616 191 -185 43 -244 78
-254 152 -9 66 38 132 114 158 50 18 168 19 227 1z"/>
<path d="M6730 2255 c-307 -45 -568 -214 -700 -453 -25 -45 -48 -82 -52 -82
-5 0 -8 117 -8 260 l0 260 -322 -2 -323 -3 -3 -362 -2 -363 -340 0 c-187 0
-343 -1 -347 -2 -5 -2 -10 161 -13 362 l-5 365 -320 0 -320 0 0 -1045 0 -1045
320 0 320 0 3 422 2 423 350 0 350 0 2 -423 3 -422 323 -3 322 -2 0 260 c0
143 4 260 8 260 5 0 16 -17 26 -37 52 -110 187 -266 289 -335 190 -129 455
-189 767 -174 331 15 543 103 731 304 168 179 244 394 256 727 15 431 -115
742 -393 941 -120 85 -304 152 -484 174 -111 13 -333 11 -440 -5z m413 -508
c139 -63 214 -170 246 -351 26 -141 8 -427 -34 -546 -56 -160 -199 -253 -390
-253 -97 0 -167 20 -239 68 -85 56 -128 124 -168 262 -20 68 -23 100 -22 258
0 201 13 276 64 382 47 94 148 178 247 203 21 5 83 8 138 6 84 -2 110 -7 158
-29z"/>
</g>
</svg>
